<svg width="18" height="26" viewBox="0 0 18 26" fill="none" xmlns="http://www.w3.org/2000/svg">
<path fill-rule="evenodd" clip-rule="evenodd" d="M9.49993 0.699951C9.49993 0.423809 9.27607 0.199951 8.99993 0.199951C8.72379 0.199951 8.49993 0.423809 8.49993 0.699951V0.745208V0.790364V0.835421V0.880378V0.925236V0.969995V1.01466V1.05922V1.10369V1.14805V1.19233V1.2365V1.28058V1.32456V1.36845V1.41225V1.45595V1.49955V1.54307V1.58649V1.62981V1.67305V1.71619V1.75924V1.8022V1.84507V1.88784V1.93053V1.97313V2.01564V2.05806V2.10039V2.14263V2.18479V2.22686V2.26884V2.31074V2.35255V2.39427V2.43591V2.47746V2.51893V2.56031V2.60162V2.64283V2.68397V2.72502V2.76599V2.80688V2.84768V2.88841V2.92906V2.96962V3.01011V3.05051V3.09084V3.13109V3.17126V3.21135V3.25136V3.2913V3.33116V3.37095V3.41065V3.45029V3.48985V3.52933V3.56874V3.60807V3.64734V3.68652V3.72564V3.76468V3.80366V3.84256V3.88138V3.92014V3.95883V3.99745V4.036V4.07448V4.11289V4.15123V4.1895V4.22771V4.26585V4.30392V4.34192V4.37986V4.41774V4.45555V4.49329V4.53097V4.56858V4.60614V4.64362V4.68105V4.71841V4.75571V4.79295V4.83013V4.86725V4.9043V4.9413V4.97824V5.01511V5.05193V5.08869V5.12539V5.16204V5.19862V5.23515V5.27162V5.30804V5.3444V5.3807V5.41695V5.45315V5.48929V5.52538V5.56141V5.59739V5.63332V5.6692V5.70502V5.74079V5.77651V5.81218V5.8478V5.88337V5.91889V5.95437V5.98979V6.02516V6.06049V6.09577V6.131V6.16619V6.20132V6.23642V6.27146V6.30647V6.34142V6.37633V6.4112V6.44603V6.48081V6.51555V6.55024V6.5849V6.61951V6.65408V6.68861V6.7231V6.75755V6.79196V6.82633V6.86066V6.89496V6.92921V6.96343V6.99761V7.03175V7.06586V7.09993V7.13397V7.16796V7.20193V7.23586V7.26975V7.30362V7.33744V7.37124V7.405V7.43873V7.47243V7.5061V7.53973V7.57334V7.60691V7.64046V7.67397V7.70746V7.74092V7.77435V7.80775V7.84113V7.87447V7.90779V7.94109V7.97435V8.0076V8.04081V8.07401V8.10717V8.14032V8.17344V8.20654V8.23961V8.27266V8.30569V8.3387V8.37169V8.40466V8.4376V8.47053V8.50343V8.53632V8.56919V8.60204V8.63487V8.66768V8.70048V8.73326V8.76602V8.79877V8.8315V8.86422V8.89692V8.92961V8.96228V8.99494V9.02758V9.06021V9.09284V9.12544V9.15804V9.19062V9.2232V9.25576V9.28831V9.32085V9.35339V9.38591V9.41843V9.45093V9.48343V9.51593V9.54841V9.58089V9.61336V9.64583V9.67829V9.71074V9.74319V9.77564V9.80808V9.84052V9.87296V9.90539V9.93782V9.97025V10.0027V10.0351V10.0675V10.1V10.1324V10.1648V10.1972V10.2297V10.2621V10.2945V10.3269V10.3594V10.3918V10.4243V10.4567V10.4892V10.5216V10.5541V10.5865V10.619V10.6515V10.684V10.7165V10.749V10.7815V10.814V10.8465V10.879V10.9116V10.9441V10.9767V11.0093V11.0419V11.0745V11.1071V11.1397V11.1723V11.205V11.2376V11.2703V11.303V11.3357V11.3684V11.4011V11.4339V11.4666V11.4994V11.5322V11.565V11.5979V11.6307V11.6636V11.6965V11.7294V11.7623V11.7952V11.8282V11.8612V11.8942V11.9272V11.9603V11.9934V12.0265V12.0596V12.0927V12.1259V12.1591V12.1923V12.2255V12.2588V12.2921V12.3254V12.3588V12.3922V12.4256V12.459V12.4924V12.5259V12.5594V12.593V12.6266V12.6602V12.6938V12.7275V12.7612V12.7949V12.8287V12.8625V12.8963V12.9301V12.964V12.998V13.0319V13.0659V13.1V13.134V13.1681V13.2023V13.2365V13.2707V13.3049V13.3392V13.3736V13.4079V13.4424V13.4768V13.5113V13.5458V13.5804V13.615V13.6497V13.6844V13.7191V13.7539V13.7887V13.8236V13.8585V13.8934V13.9284V13.9635V13.9986V14.0337V14.0689V14.1041V14.1394V14.1747V14.2101V14.2455V14.281V14.3165V14.3521V14.3877V14.4234V14.4591V14.4949V14.5307V14.5666V14.6025V14.6385V14.6745V14.7106V14.7468V14.7829V14.8192V14.8555V14.8919V14.9283V14.9648V15.0013V15.0379V15.0745V15.1112V15.148V15.1848V15.2217V15.2586V15.2956V15.3327V15.3698V15.407V15.4442V15.4815V15.5189V15.5563V15.5938V15.6313V15.6689V15.7066V15.7444V15.7822V15.82V15.858V15.896V15.9341V15.9722V16.0104V16.0487V16.087V16.1254V16.1639V16.2025V16.2411V16.2798V16.3185V16.3573V16.3962V16.4352V16.4743V16.5134V16.5526V16.5918V16.6312V16.6706V16.7101V16.7496V16.7892V16.829V16.8687V16.9086V16.9485V16.9886V17.0286V17.0688V17.1091V17.1494V17.1898V17.2303V17.2708V17.3115V17.3522V17.393V17.4339V17.4749V17.5159V17.5571V17.5983V17.6396V17.681V17.7224V17.764V17.8056V17.8474V17.8892V17.9311V17.973V18.0151V18.0327L2.19589 9.85696C2.02727 9.63828 1.7133 9.5977 1.49461 9.76632C1.27593 9.93493 1.23535 10.2489 1.40397 10.4676L8.60397 19.8053C8.69863 19.928 8.8449 20 8.99993 20C9.15496 20 9.30122 19.928 9.39589 19.8053L16.5959 10.4676C16.7645 10.2489 16.7239 9.93493 16.5052 9.76632C16.2866 9.5977 15.9726 9.63828 15.804 9.85696L9.49993 18.0327V18.0151V17.973V17.9311V17.8892V17.8474V17.8056V17.764V17.7224V17.681V17.6396V17.5983V17.5571V17.5159V17.4749V17.4339V17.393V17.3522V17.3115V17.2708V17.2303V17.1898V17.1494V17.1091V17.0688V17.0286V16.9886V16.9485V16.9086V16.8687V16.829V16.7892V16.7496V16.7101V16.6706V16.6312V16.5918V16.5526V16.5134V16.4743V16.4352V16.3962V16.3573V16.3185V16.2798V16.2411V16.2025V16.1639V16.1254V16.087V16.0487V16.0104V15.9722V15.9341V15.896V15.858V15.82V15.7822V15.7444V15.7066V15.6689V15.6313V15.5938V15.5563V15.5189V15.4815V15.4442V15.407V15.3698V15.3327V15.2956V15.2586V15.2217V15.1848V15.148V15.1112V15.0745V15.0379V15.0013V14.9648V14.9283V14.8919V14.8555V14.8192V14.7829V14.7468V14.7106V14.6745V14.6385V14.6025V14.5666V14.5307V14.4949V14.4591V14.4234V14.3877V14.3521V14.3165V14.281V14.2455V14.2101V14.1747V14.1394V14.1041V14.0689V14.0337V13.9986V13.9635V13.9284V13.8934V13.8585V13.8236V13.7887V13.7539V13.7191V13.6844V13.6497V13.615V13.5804V13.5458V13.5113V13.4768V13.4424V13.4079V13.3736V13.3392V13.3049V13.2707V13.2365V13.2023V13.1681V13.134V13.1V13.0659V13.0319V12.998V12.964V12.9301V12.8963V12.8625V12.8287V12.7949V12.7612V12.7275V12.6938V12.6602V12.6266V12.593V12.5594V12.5259V12.4924V12.459V12.4256V12.3922V12.3588V12.3254V12.2921V12.2588V12.2255V12.1923V12.1591V12.1259V12.0927V12.0596V12.0265V11.9934V11.9603V11.9272V11.8942V11.8612V11.8282V11.7952V11.7623V11.7294V11.6965V11.6636V11.6307V11.5979V11.565V11.5322V11.4994V11.4666V11.4339V11.4011V11.3684V11.3357V11.303V11.2703V11.2376V11.205V11.1723V11.1397V11.1071V11.0745V11.0419V11.0093V10.9767V10.9441V10.9116V10.879V10.8465V10.814V10.7815V10.749V10.7165V10.684V10.6515V10.619V10.5865V10.5541V10.5216V10.4892V10.4567V10.4243V10.3918V10.3594V10.3269V10.2945V10.2621V10.2297V10.1972V10.1648V10.1324V10.1V10.0675V10.0351V10.0027V9.97025V9.93782V9.90539V9.87296V9.84052V9.80808V9.77564V9.74319V9.71074V9.67829V9.64583V9.61336V9.58089V9.54841V9.51593V9.48343V9.45093V9.41843V9.38591V9.35339V9.32085V9.28831V9.25576V9.2232V9.19062V9.15804V9.12544V9.09284V9.06021V9.02758V8.99494V8.96228V8.92961V8.89692V8.86422V8.8315V8.79877V8.76602V8.73326V8.70048V8.66768V8.63487V8.60204V8.56919V8.53632V8.50343V8.47053V8.4376V8.40466V8.37169V8.3387V8.30569V8.27266V8.23961V8.20654V8.17344V8.14032V8.10717V8.07401V8.04081V8.0076V7.97435V7.94109V7.90779V7.87447V7.84113V7.80775V7.77435V7.74092V7.70746V7.67397V7.64046V7.60691V7.57334V7.53973V7.5061V7.47243V7.43873V7.405V7.37124V7.33744V7.30362V7.26975V7.23586V7.20193V7.16796V7.13397V7.09993V7.06586V7.03175V6.99761V6.96343V6.92921V6.89496V6.86066V6.82633V6.79196V6.75755V6.7231V6.68861V6.65408V6.61951V6.5849V6.55024V6.51555V6.48081V6.44603V6.4112V6.37633V6.34142V6.30647V6.27146V6.23642V6.20132V6.16619V6.131V6.09577V6.06049V6.02516V5.98979V5.95437V5.91889V5.88337V5.8478V5.81218V5.77651V5.74079V5.70502V5.6692V5.63332V5.59739V5.56141V5.52538V5.48929V5.45315V5.41695V5.3807V5.3444V5.30804V5.27162V5.23515V5.19862V5.16204V5.12539V5.08869V5.05193V5.01511V4.97824V4.9413V4.9043V4.86725V4.83013V4.79295V4.75571V4.71841V4.68105V4.64362V4.60614V4.56858V4.53097V4.49329V4.45555V4.41774V4.37986V4.34192V4.30392V4.26585V4.22771V4.1895V4.15123V4.11289V4.07448V4.036V3.99745V3.95883V3.92014V3.88138V3.84256V3.80366V3.76468V3.72564V3.68652V3.64734V3.60807V3.56874V3.52933V3.48985V3.45029V3.41065V3.37095V3.33116V3.2913V3.25136V3.21135V3.17126V3.13109V3.09084V3.05051V3.01011V2.96962V2.92906V2.88841V2.84768V2.80688V2.76599V2.72502V2.68397V2.64283V2.60162V2.56031V2.51893V2.47746V2.43591V2.39427V2.35255V2.31074V2.26884V2.22686V2.18479V2.14263V2.10039V2.05806V2.01564V1.97313V1.93053V1.88784V1.84507V1.8022V1.75924V1.71619V1.67305V1.62981V1.58649V1.54307V1.49955V1.45595V1.41225V1.36845V1.32456V1.28058V1.2365V1.19233V1.14805V1.10369V1.05922V1.01466V0.969995V0.925236V0.880378V0.835421V0.790364V0.745208V0.699951ZM0.45 24.9C0.201472 24.9 0 25.1015 0 25.35C0 25.5985 0.201473 25.8 0.450001 25.8H17.55C17.7985 25.8 18 25.5985 18 25.35C18 25.1015 17.7985 24.9 17.55 24.9H0.45Z" fill="#AAAAAA"/>
</svg>
