<svg width="14" height="14" viewBox="0 0 14 14" fill="none" xmlns="http://www.w3.org/2000/svg">
<path fill-rule="evenodd" clip-rule="evenodd" d="M7.45756 1.35313C7.6526 1.15764 7.65222 0.841057 7.45673 0.646027C7.26123 0.450997 6.94465 0.451372 6.74962 0.646866L0.749619 6.66113L0.396484 7.0151L0.750459 7.36823L6.75046 13.354C6.94595 13.549 7.26254 13.5486 7.45757 13.3531C7.6526 13.1576 7.65222 12.8411 7.45672 12.646L1.8107 7.01342L7.45756 1.35313ZM13.4576 1.35313C13.6526 1.15764 13.6522 0.841057 13.4567 0.646027C13.2612 0.450997 12.9446 0.451372 12.7496 0.646866L6.74962 6.66113L6.39648 7.0151L6.75046 7.36823L12.7505 13.354C12.946 13.549 13.2625 13.5486 13.4576 13.3531C13.6526 13.1576 13.6522 12.8411 13.4567 12.646L7.8107 7.01342L13.4576 1.35313Z" fill="#CCCCCC"/>
</svg>
